<svg width="226" height="70" viewBox="0 0 226 70" fill="none" xmlns="http://www.w3.org/2000/svg">
<path d="M31.768 0.591995H38.968C44.408 0.591995 47.128 3.696 47.128 9.904V34.288C47.128 40.048 44.312 42.928 38.68 42.928H25.432V33.808H29.176C30.328 33.808 31.032 33.616 31.288 33.232C31.608 32.784 31.768 32.048 31.768 31.024V0.591995ZM21.592 42.928H18.904C17.752 42.928 17.016 43.152 16.696 43.6C16.44 43.984 16.312 44.688 16.312 45.712V70H8.152C5.016 70 3.032 69.488 2.2 68.464C1.368 67.44 0.952 64.88 0.952 60.784V40.528C0.952 37.712 1.432 35.888 2.392 35.056C3.352 34.224 5.368 33.808 8.44 33.808H21.592V42.928ZM44.728 58.96C46.328 58.96 47.128 59.856 47.128 61.648V70H20.248L20.152 58.96H44.728ZM27.928 9.712H18.808C17.464 9.712 16.632 9.936 16.312 10.384C15.992 10.768 15.832 11.504 15.832 12.592V23.248H5.272C2.904 23.248 1.496 23.056 1.048 22.672C0.664 22.288 0.472 21.104 0.472 19.12V10.864C0.472 7.344 0.984 4.752 2.008 3.088C3.096 1.424 5.432 0.591995 9.016 0.591995H27.928V9.712ZM86.158 0.591995H93.55C96.11 0.591995 98.222 0.783997 99.886 1.168C101.614 1.552 103.086 2.32 104.302 3.472C105.582 4.624 106.542 5.936 107.182 7.408C107.886 8.816 108.43 10.992 108.814 13.936C109.39 18.352 109.678 25.424 109.678 35.152V35.44C109.678 50.096 108.942 59.184 107.47 62.704C105.998 66.416 103.886 68.656 101.134 69.424C99.662 69.808 97.838 70 95.662 70H86.158V60.88H89.422C91.086 60.88 92.142 60.656 92.59 60.208C93.102 59.76 93.358 59.056 93.358 58.096V12.496C93.358 11.536 93.102 10.832 92.59 10.384C92.142 9.936 91.086 9.712 89.422 9.712H86.158V0.591995ZM82.318 9.712H79.054C77.39 9.712 76.302 9.936 75.79 10.384C75.342 10.832 75.118 11.536 75.118 12.496V58.096C75.118 59.056 75.342 59.76 75.79 60.208C76.302 60.656 77.39 60.88 79.054 60.88H82.318V70H72.814C68.014 70 64.526 68.528 62.35 65.584C60.558 63.216 59.47 57.776 59.086 49.264C58.894 45.936 58.798 41.328 58.798 35.44V35.152C58.798 20.112 59.598 10.864 61.198 7.408C61.902 5.936 62.862 4.624 64.078 3.472C65.358 2.32 66.83 1.552 68.494 1.168C70.222 0.783997 72.366 0.591995 74.926 0.591995H82.318V9.712ZM152.518 0.591995H159.718C165.158 0.591995 167.878 3.696 167.878 9.904V34.288C167.878 40.048 165.062 42.928 159.43 42.928H146.182V33.808H149.926C151.078 33.808 151.782 33.616 152.038 33.232C152.358 32.784 152.518 32.048 152.518 31.024V0.591995ZM142.342 42.928H139.654C138.502 42.928 137.766 43.152 137.446 43.6C137.19 43.984 137.062 44.688 137.062 45.712V70H128.902C125.766 70 123.782 69.488 122.95 68.464C122.118 67.44 121.702 64.88 121.702 60.784V40.528C121.702 37.712 122.182 35.888 123.142 35.056C124.102 34.224 126.118 33.808 129.19 33.808H142.342V42.928ZM165.478 58.96C167.078 58.96 167.878 59.856 167.878 61.648V70H140.998L140.902 58.96H165.478ZM148.678 9.712H139.558C138.214 9.712 137.382 9.936 137.062 10.384C136.742 10.768 136.582 11.504 136.582 12.592V23.248H126.022C123.654 23.248 122.246 23.056 121.798 22.672C121.414 22.288 121.222 21.104 121.222 19.12V10.864C121.222 7.344 121.734 4.752 122.758 3.088C123.846 1.424 126.182 0.591995 129.766 0.591995H148.678V9.712ZM210.268 0.591995H217.468C222.908 0.591995 225.628 3.696 225.628 9.904V34.288C225.628 40.048 222.812 42.928 217.18 42.928H203.932V33.808H207.676C208.828 33.808 209.532 33.616 209.788 33.232C210.108 32.784 210.268 32.048 210.268 31.024V0.591995ZM200.092 42.928H197.404C196.252 42.928 195.516 43.152 195.196 43.6C194.94 43.984 194.812 44.688 194.812 45.712V70H186.652C183.516 70 181.532 69.488 180.7 68.464C179.868 67.44 179.452 64.88 179.452 60.784V40.528C179.452 37.712 179.932 35.888 180.892 35.056C181.852 34.224 183.868 33.808 186.94 33.808H200.092V42.928ZM223.228 58.96C224.828 58.96 225.628 59.856 225.628 61.648V70H198.748L198.652 58.96H223.228ZM206.428 9.712H197.308C195.964 9.712 195.132 9.936 194.812 10.384C194.492 10.768 194.332 11.504 194.332 12.592V23.248H183.772C181.404 23.248 179.996 23.056 179.548 22.672C179.164 22.288 178.972 21.104 178.972 19.12V10.864C178.972 7.344 179.484 4.752 180.508 3.088C181.596 1.424 183.932 0.591995 187.516 0.591995H206.428V9.712Z" fill="#BE4D9E"/>
</svg>
