<svg width="143" height="78" viewBox="0 0 143 78" fill="none" xmlns="http://www.w3.org/2000/svg">
<path opacity="0.1" d="M0.384 75V61.464C0.384 57.88 0.672 55.064 1.248 53.016C1.888 50.904 2.944 49.144 4.416 47.736C5.952 46.264 8.032 44.76 10.656 43.224H0.96V33.24C0.96 23.128 6.816 18.072 18.528 18.072C22.944 18.072 26.432 18.616 28.992 19.704C31.552 20.792 33.376 22.616 34.464 25.176C35.552 27.736 36.096 31.224 36.096 35.64C36.096 40.376 35.392 44.12 33.984 46.872C32.576 49.56 30.272 51.896 27.072 53.88L24.672 55.224C23.584 55.864 22.656 56.44 21.888 56.952C21.12 57.4 20.48 57.944 19.968 58.584H36.096V75H0.384ZM2.016 73.272H34.464V60.312H17.472C17.792 58.84 18.496 57.624 19.584 56.664C20.736 55.704 22.208 54.712 24 53.688L26.304 52.44C29.376 50.52 31.488 48.312 32.64 45.816C33.856 43.256 34.464 39.864 34.464 35.64C34.464 31.736 33.984 28.632 33.024 26.328C32.064 24.024 30.4 22.36 28.032 21.336C25.728 20.312 22.56 19.8 18.528 19.8C7.904 19.8 2.592 24.28 2.592 33.24V41.496H17.088C16.512 42.072 15.968 42.488 15.456 42.744L13.632 43.704H13.728L12.768 44.184C10.08 45.592 7.936 46.968 6.336 48.312C4.8 49.656 3.68 51.352 2.976 53.4C2.336 55.384 2.016 58.072 2.016 61.464V73.272ZM2.88 72.408V61.464C2.88 58.264 3.2 55.704 3.84 53.784C4.48 51.8 5.536 50.168 7.008 48.888C8.544 47.544 10.592 46.232 13.152 44.952C14.368 44.248 15.488 43.608 16.512 43.032C17.536 42.392 18.368 41.592 19.008 40.632C19.648 39.672 19.968 38.328 19.968 36.6V35.16C19.968 33.88 19.872 32.792 19.68 31.896C19.488 30.936 19.04 30.456 18.336 30.456C17.44 30.456 16.928 31.032 16.8 32.184C16.736 32.824 16.672 33.592 16.608 34.488C16.608 35.32 16.608 36.344 16.608 37.56V40.632H3.456V33.24C3.456 24.856 8.48 20.664 18.528 20.664C22.368 20.664 25.376 21.144 27.552 22.104C29.728 23.064 31.264 24.632 32.16 26.808C33.12 28.984 33.6 31.928 33.6 35.64C33.6 39.672 33.056 42.904 31.968 45.336C30.88 47.704 28.832 49.816 25.824 51.672C24.032 52.696 22.432 53.624 21.024 54.456C19.68 55.224 18.624 56.12 17.856 57.144C17.088 58.168 16.64 59.544 16.512 61.272H33.6V72.408H2.88ZM17.472 41.208V37.56C17.472 36.536 17.472 35.64 17.472 34.872C17.472 34.04 17.504 33.368 17.568 32.856C17.632 31.832 17.888 31.32 18.336 31.32C18.656 31.32 18.88 31.672 19.008 32.376C19.072 32.76 19.104 33.208 19.104 33.72C19.168 34.168 19.2 34.648 19.2 35.16V36.6C19.2 37.688 19.04 38.616 18.72 39.384C18.4 40.088 17.984 40.696 17.472 41.208ZM54.0345 76.056C48.4025 76.056 44.1785 74.392 41.3625 71.064C38.5465 67.736 37.1385 62.392 37.1385 55.032V34.104C37.1385 28.92 38.6745 24.856 41.7465 21.912C44.8185 18.968 48.9145 17.496 54.0345 17.496C59.1545 17.496 63.2505 18.968 66.3225 21.912C69.3945 24.856 70.9305 28.92 70.9305 34.104V55.032C70.9305 62.392 69.5225 67.736 66.7065 71.064C63.8905 74.392 59.6665 76.056 54.0345 76.056ZM54.0345 74.328C59.0905 74.328 62.8985 72.824 65.4585 69.816C68.0185 66.744 69.2985 61.816 69.2985 55.032V34.104C69.2985 29.496 67.8905 25.88 65.0745 23.256C62.3225 20.568 58.6425 19.224 54.0345 19.224C49.4265 19.224 45.7145 20.568 42.8985 23.256C40.1465 25.88 38.7705 29.496 38.7705 34.104V55.032C38.7705 61.816 40.0505 66.744 42.6105 69.816C45.1705 72.824 48.9785 74.328 54.0345 74.328ZM54.0345 73.464C49.2345 73.464 45.6185 71.992 43.1865 69.048C40.7545 66.104 39.5385 61.432 39.5385 55.032V34.104C39.5385 29.752 40.8505 26.328 43.4745 23.832C46.0985 21.336 49.6185 20.088 54.0345 20.088C58.3865 20.088 61.8745 21.336 64.4985 23.832C67.1225 26.328 68.4345 29.752 68.4345 34.104V55.032C68.4345 61.432 67.2185 66.104 64.7865 69.048C62.3545 71.992 58.7705 73.464 54.0345 73.464ZM54.0345 65.4C54.4185 65.4 54.7385 65.208 54.9945 64.824C55.2505 64.504 55.3785 63.832 55.3785 62.808V31.032C55.3785 29.944 55.2505 29.24 54.9945 28.92C54.6745 28.6 54.3545 28.44 54.0345 28.44C53.6505 28.44 53.2985 28.6 52.9785 28.92C52.7225 29.24 52.5945 29.944 52.5945 31.032V62.808C52.5945 64.536 53.0745 65.4 54.0345 65.4ZM54.0345 64.536C53.6505 64.536 53.4585 63.96 53.4585 62.808V31.032C53.4585 30.456 53.5225 29.976 53.6505 29.592C53.7785 29.4 53.9065 29.304 54.0345 29.304C54.2265 29.304 54.3545 29.4 54.4185 29.592C54.5465 29.976 54.6105 30.456 54.6105 31.032V62.808C54.6105 63.96 54.4185 64.536 54.0345 64.536ZM71.9153 75V61.464C71.9153 57.88 72.2033 55.064 72.7793 53.016C73.4193 50.904 74.4753 49.144 75.9473 47.736C77.4833 46.264 79.5633 44.76 82.1873 43.224H72.4913V33.24C72.4913 23.128 78.3473 18.072 90.0593 18.072C94.4753 18.072 97.9633 18.616 100.523 19.704C103.083 20.792 104.907 22.616 105.995 25.176C107.083 27.736 107.627 31.224 107.627 35.64C107.627 40.376 106.923 44.12 105.515 46.872C104.107 49.56 101.803 51.896 98.6033 53.88L96.2032 55.224C95.1153 55.864 94.1873 56.44 93.4193 56.952C92.6513 57.4 92.0113 57.944 91.4993 58.584H107.627V75H71.9153ZM73.5473 73.272H105.995V60.312H89.0033C89.3233 58.84 90.0273 57.624 91.1153 56.664C92.2673 55.704 93.7393 54.712 95.5312 53.688L97.8353 52.44C100.907 50.52 103.019 48.312 104.171 45.816C105.387 43.256 105.995 39.864 105.995 35.64C105.995 31.736 105.515 28.632 104.555 26.328C103.595 24.024 101.931 22.36 99.5633 21.336C97.2593 20.312 94.0913 19.8 90.0593 19.8C79.4353 19.8 74.1233 24.28 74.1233 33.24V41.496H88.6193C88.0433 42.072 87.4993 42.488 86.9873 42.744L85.1633 43.704H85.2593L84.2993 44.184C81.6113 45.592 79.4673 46.968 77.8672 48.312C76.3313 49.656 75.2113 51.352 74.5073 53.4C73.8673 55.384 73.5473 58.072 73.5473 61.464V73.272ZM74.4113 72.408V61.464C74.4113 58.264 74.7313 55.704 75.3713 53.784C76.0113 51.8 77.0673 50.168 78.5393 48.888C80.0753 47.544 82.1233 46.232 84.6833 44.952C85.8993 44.248 87.0193 43.608 88.0433 43.032C89.0673 42.392 89.8993 41.592 90.5393 40.632C91.1793 39.672 91.4993 38.328 91.4993 36.6V35.16C91.4993 33.88 91.4033 32.792 91.2113 31.896C91.0193 30.936 90.5713 30.456 89.8673 30.456C88.9713 30.456 88.4593 31.032 88.3313 32.184C88.2673 32.824 88.2033 33.592 88.1393 34.488C88.1393 35.32 88.1393 36.344 88.1393 37.56V40.632H74.9873V33.24C74.9873 24.856 80.0113 20.664 90.0593 20.664C93.8993 20.664 96.9073 21.144 99.0833 22.104C101.259 23.064 102.795 24.632 103.691 26.808C104.651 28.984 105.131 31.928 105.131 35.64C105.131 39.672 104.587 42.904 103.499 45.336C102.411 47.704 100.363 49.816 97.3553 51.672C95.5633 52.696 93.9633 53.624 92.5553 54.456C91.2113 55.224 90.1553 56.12 89.3873 57.144C88.6193 58.168 88.1713 59.544 88.0433 61.272H105.131V72.408H74.4113ZM89.0033 41.208V37.56C89.0033 36.536 89.0033 35.64 89.0033 34.872C89.0033 34.04 89.0353 33.368 89.0993 32.856C89.1633 31.832 89.4193 31.32 89.8673 31.32C90.1873 31.32 90.4113 31.672 90.5393 32.376C90.6033 32.76 90.6353 33.208 90.6353 33.72C90.6993 34.168 90.7313 34.648 90.7313 35.16V36.6C90.7313 37.688 90.5713 38.616 90.2513 39.384C89.9313 40.088 89.5153 40.696 89.0033 41.208ZM125.278 75.48C113.566 75.48 107.71 70.424 107.71 60.312V51.192H115.102V41.496H107.71V33.24C107.71 23.064 113.566 17.976 125.278 17.976C131.55 17.976 136.03 19.096 138.718 21.336C141.406 23.512 142.75 27.064 142.75 31.992V36.984C142.75 39.224 142.494 41.144 141.982 42.744C141.47 44.344 140.542 45.688 139.198 46.776C141.566 48.696 142.75 51.864 142.75 56.28V60.312C142.75 66.072 141.342 70.04 138.526 72.216C135.774 74.392 131.358 75.48 125.278 75.48ZM125.278 73.752C130.782 73.752 134.782 72.792 137.278 70.872C139.838 68.952 141.118 65.432 141.118 60.312V56.28C141.118 51.544 139.39 48.376 135.934 46.776C137.79 46.008 139.102 44.792 139.87 43.128C140.702 41.4 141.118 39.352 141.118 36.984V31.992C141.118 27.704 139.902 24.6 137.47 22.68C135.038 20.76 130.974 19.8 125.278 19.8C114.718 19.8 109.438 24.28 109.438 33.24V39.768H124.126V37.56C124.126 36.536 124.126 35.64 124.126 34.872C124.126 34.04 124.158 33.368 124.222 32.856C124.286 31.832 124.574 31.32 125.086 31.32C125.406 31.32 125.63 31.672 125.758 32.376C125.822 32.76 125.854 33.208 125.854 33.72C125.854 34.168 125.854 34.648 125.854 35.16V39.096C125.854 39.8 125.566 40.44 124.99 41.016C124.414 41.592 123.038 41.88 120.862 41.88H116.734V50.904H120.766C122.494 50.904 123.774 51.064 124.606 51.384C125.438 51.64 125.854 52.28 125.854 53.304V58.392C125.854 58.904 125.854 59.416 125.854 59.928C125.854 60.376 125.822 60.76 125.758 61.08C125.694 61.848 125.47 62.232 125.086 62.232C124.638 62.232 124.35 61.688 124.222 60.6C124.158 60.088 124.126 59.448 124.126 58.68C124.126 57.912 124.126 57.016 124.126 55.992V52.92H109.438V60.312C109.438 69.272 114.718 73.752 125.278 73.752ZM125.278 72.888C115.23 72.888 110.206 68.696 110.206 60.312V53.784H123.358V55.992C123.358 57.208 123.358 58.264 123.358 59.16C123.422 59.992 123.486 60.696 123.55 61.272C123.614 62.488 124.126 63.096 125.086 63.096C125.79 63.096 126.238 62.648 126.43 61.752C126.622 60.792 126.718 59.672 126.718 58.392V53.304C126.718 51.896 126.238 51 125.278 50.616C124.318 50.232 122.814 50.04 120.766 50.04H117.598V42.744H120.862C123.422 42.744 125.022 42.36 125.662 41.592C126.366 40.888 126.718 40.056 126.718 39.096V35.16C126.718 33.88 126.622 32.792 126.43 31.896C126.238 30.936 125.79 30.456 125.086 30.456C124.19 30.456 123.678 31.032 123.55 32.184C123.486 32.824 123.422 33.592 123.358 34.488C123.358 35.32 123.358 36.344 123.358 37.56V38.904H110.206V33.24C110.206 24.856 115.23 20.664 125.278 20.664C130.654 20.664 134.494 21.56 136.798 23.352C139.166 25.144 140.35 28.024 140.35 31.992V36.984C140.35 39.864 139.646 42.2 138.238 43.992C136.83 45.72 134.686 46.648 131.806 46.776C134.43 46.776 136.51 47.64 138.046 49.368C139.582 51.032 140.35 53.336 140.35 56.28V60.312C140.35 65.048 139.134 68.344 136.702 70.2C134.334 71.992 130.526 72.888 125.278 72.888Z" fill="#7AA0D7"/>
<path opacity="0.1" d="M0.384 70V56.464C0.384 52.88 0.672 50.064 1.248 48.016C1.888 45.904 2.944 44.144 4.416 42.736C5.952 41.264 8.032 39.76 10.656 38.224H0.96V28.24C0.96 18.128 6.816 13.072 18.528 13.072C22.944 13.072 26.432 13.616 28.992 14.704C31.552 15.792 33.376 17.616 34.464 20.176C35.552 22.736 36.096 26.224 36.096 30.64C36.096 35.376 35.392 39.12 33.984 41.872C32.576 44.56 30.272 46.896 27.072 48.88L24.672 50.224C23.584 50.864 22.656 51.44 21.888 51.952C21.12 52.4 20.48 52.944 19.968 53.584H36.096V70H0.384ZM2.016 68.272H34.464V55.312H17.472C17.792 53.84 18.496 52.624 19.584 51.664C20.736 50.704 22.208 49.712 24 48.688L26.304 47.44C29.376 45.52 31.488 43.312 32.64 40.816C33.856 38.256 34.464 34.864 34.464 30.64C34.464 26.736 33.984 23.632 33.024 21.328C32.064 19.024 30.4 17.36 28.032 16.336C25.728 15.312 22.56 14.8 18.528 14.8C7.904 14.8 2.592 19.28 2.592 28.24V36.496H17.088C16.512 37.072 15.968 37.488 15.456 37.744L13.632 38.704H13.728L12.768 39.184C10.08 40.592 7.936 41.968 6.336 43.312C4.8 44.656 3.68 46.352 2.976 48.4C2.336 50.384 2.016 53.072 2.016 56.464V68.272ZM2.88 67.408V56.464C2.88 53.264 3.2 50.704 3.84 48.784C4.48 46.8 5.536 45.168 7.008 43.888C8.544 42.544 10.592 41.232 13.152 39.952C14.368 39.248 15.488 38.608 16.512 38.032C17.536 37.392 18.368 36.592 19.008 35.632C19.648 34.672 19.968 33.328 19.968 31.6V30.16C19.968 28.88 19.872 27.792 19.68 26.896C19.488 25.936 19.04 25.456 18.336 25.456C17.44 25.456 16.928 26.032 16.8 27.184C16.736 27.824 16.672 28.592 16.608 29.488C16.608 30.32 16.608 31.344 16.608 32.56V35.632H3.456V28.24C3.456 19.856 8.48 15.664 18.528 15.664C22.368 15.664 25.376 16.144 27.552 17.104C29.728 18.064 31.264 19.632 32.16 21.808C33.12 23.984 33.6 26.928 33.6 30.64C33.6 34.672 33.056 37.904 31.968 40.336C30.88 42.704 28.832 44.816 25.824 46.672C24.032 47.696 22.432 48.624 21.024 49.456C19.68 50.224 18.624 51.12 17.856 52.144C17.088 53.168 16.64 54.544 16.512 56.272H33.6V67.408H2.88ZM17.472 36.208V32.56C17.472 31.536 17.472 30.64 17.472 29.872C17.472 29.04 17.504 28.368 17.568 27.856C17.632 26.832 17.888 26.32 18.336 26.32C18.656 26.32 18.88 26.672 19.008 27.376C19.072 27.76 19.104 28.208 19.104 28.72C19.168 29.168 19.2 29.648 19.2 30.16V31.6C19.2 32.688 19.04 33.616 18.72 34.384C18.4 35.088 17.984 35.696 17.472 36.208ZM54.0345 71.056C48.4025 71.056 44.1785 69.392 41.3625 66.064C38.5465 62.736 37.1385 57.392 37.1385 50.032V29.104C37.1385 23.92 38.6745 19.856 41.7465 16.912C44.8185 13.968 48.9145 12.496 54.0345 12.496C59.1545 12.496 63.2505 13.968 66.3225 16.912C69.3945 19.856 70.9305 23.92 70.9305 29.104V50.032C70.9305 57.392 69.5225 62.736 66.7065 66.064C63.8905 69.392 59.6665 71.056 54.0345 71.056ZM54.0345 69.328C59.0905 69.328 62.8985 67.824 65.4585 64.816C68.0185 61.744 69.2985 56.816 69.2985 50.032V29.104C69.2985 24.496 67.8905 20.88 65.0745 18.256C62.3225 15.568 58.6425 14.224 54.0345 14.224C49.4265 14.224 45.7145 15.568 42.8985 18.256C40.1465 20.88 38.7705 24.496 38.7705 29.104V50.032C38.7705 56.816 40.0505 61.744 42.6105 64.816C45.1705 67.824 48.9785 69.328 54.0345 69.328ZM54.0345 68.464C49.2345 68.464 45.6185 66.992 43.1865 64.048C40.7545 61.104 39.5385 56.432 39.5385 50.032V29.104C39.5385 24.752 40.8505 21.328 43.4745 18.832C46.0985 16.336 49.6185 15.088 54.0345 15.088C58.3865 15.088 61.8745 16.336 64.4985 18.832C67.1225 21.328 68.4345 24.752 68.4345 29.104V50.032C68.4345 56.432 67.2185 61.104 64.7865 64.048C62.3545 66.992 58.7705 68.464 54.0345 68.464ZM54.0345 60.4C54.4185 60.4 54.7385 60.208 54.9945 59.824C55.2505 59.504 55.3785 58.832 55.3785 57.808V26.032C55.3785 24.944 55.2505 24.24 54.9945 23.92C54.6745 23.6 54.3545 23.44 54.0345 23.44C53.6505 23.44 53.2985 23.6 52.9785 23.92C52.7225 24.24 52.5945 24.944 52.5945 26.032V57.808C52.5945 59.536 53.0745 60.4 54.0345 60.4ZM54.0345 59.536C53.6505 59.536 53.4585 58.96 53.4585 57.808V26.032C53.4585 25.456 53.5225 24.976 53.6505 24.592C53.7785 24.4 53.9065 24.304 54.0345 24.304C54.2265 24.304 54.3545 24.4 54.4185 24.592C54.5465 24.976 54.6105 25.456 54.6105 26.032V57.808C54.6105 58.96 54.4185 59.536 54.0345 59.536ZM71.9153 70V56.464C71.9153 52.88 72.2033 50.064 72.7793 48.016C73.4193 45.904 74.4753 44.144 75.9473 42.736C77.4833 41.264 79.5633 39.76 82.1873 38.224H72.4913V28.24C72.4913 18.128 78.3473 13.072 90.0593 13.072C94.4753 13.072 97.9633 13.616 100.523 14.704C103.083 15.792 104.907 17.616 105.995 20.176C107.083 22.736 107.627 26.224 107.627 30.64C107.627 35.376 106.923 39.12 105.515 41.872C104.107 44.56 101.803 46.896 98.6033 48.88L96.2032 50.224C95.1153 50.864 94.1873 51.44 93.4193 51.952C92.6513 52.4 92.0113 52.944 91.4993 53.584H107.627V70H71.9153ZM73.5473 68.272H105.995V55.312H89.0033C89.3233 53.84 90.0273 52.624 91.1153 51.664C92.2673 50.704 93.7393 49.712 95.5312 48.688L97.8353 47.44C100.907 45.52 103.019 43.312 104.171 40.816C105.387 38.256 105.995 34.864 105.995 30.64C105.995 26.736 105.515 23.632 104.555 21.328C103.595 19.024 101.931 17.36 99.5633 16.336C97.2593 15.312 94.0913 14.8 90.0593 14.8C79.4353 14.8 74.1233 19.28 74.1233 28.24V36.496H88.6193C88.0433 37.072 87.4993 37.488 86.9873 37.744L85.1633 38.704H85.2593L84.2993 39.184C81.6113 40.592 79.4673 41.968 77.8672 43.312C76.3313 44.656 75.2113 46.352 74.5073 48.4C73.8673 50.384 73.5473 53.072 73.5473 56.464V68.272ZM74.4113 67.408V56.464C74.4113 53.264 74.7313 50.704 75.3713 48.784C76.0113 46.8 77.0673 45.168 78.5393 43.888C80.0753 42.544 82.1233 41.232 84.6833 39.952C85.8993 39.248 87.0193 38.608 88.0433 38.032C89.0673 37.392 89.8993 36.592 90.5393 35.632C91.1793 34.672 91.4993 33.328 91.4993 31.6V30.16C91.4993 28.88 91.4033 27.792 91.2113 26.896C91.0193 25.936 90.5713 25.456 89.8673 25.456C88.9713 25.456 88.4593 26.032 88.3313 27.184C88.2673 27.824 88.2033 28.592 88.1393 29.488C88.1393 30.32 88.1393 31.344 88.1393 32.56V35.632H74.9873V28.24C74.9873 19.856 80.0113 15.664 90.0593 15.664C93.8993 15.664 96.9073 16.144 99.0833 17.104C101.259 18.064 102.795 19.632 103.691 21.808C104.651 23.984 105.131 26.928 105.131 30.64C105.131 34.672 104.587 37.904 103.499 40.336C102.411 42.704 100.363 44.816 97.3553 46.672C95.5633 47.696 93.9633 48.624 92.5553 49.456C91.2113 50.224 90.1553 51.12 89.3873 52.144C88.6193 53.168 88.1713 54.544 88.0433 56.272H105.131V67.408H74.4113ZM89.0033 36.208V32.56C89.0033 31.536 89.0033 30.64 89.0033 29.872C89.0033 29.04 89.0353 28.368 89.0993 27.856C89.1633 26.832 89.4193 26.32 89.8673 26.32C90.1873 26.32 90.4113 26.672 90.5393 27.376C90.6033 27.76 90.6353 28.208 90.6353 28.72C90.6993 29.168 90.7313 29.648 90.7313 30.16V31.6C90.7313 32.688 90.5713 33.616 90.2513 34.384C89.9313 35.088 89.5153 35.696 89.0033 36.208ZM125.278 70.48C113.566 70.48 107.71 65.424 107.71 55.312V46.192H115.102V36.496H107.71V28.24C107.71 18.064 113.566 12.976 125.278 12.976C131.55 12.976 136.03 14.096 138.718 16.336C141.406 18.512 142.75 22.064 142.75 26.992V31.984C142.75 34.224 142.494 36.144 141.982 37.744C141.47 39.344 140.542 40.688 139.198 41.776C141.566 43.696 142.75 46.864 142.75 51.28V55.312C142.75 61.072 141.342 65.04 138.526 67.216C135.774 69.392 131.358 70.48 125.278 70.48ZM125.278 68.752C130.782 68.752 134.782 67.792 137.278 65.872C139.838 63.952 141.118 60.432 141.118 55.312V51.28C141.118 46.544 139.39 43.376 135.934 41.776C137.79 41.008 139.102 39.792 139.87 38.128C140.702 36.4 141.118 34.352 141.118 31.984V26.992C141.118 22.704 139.902 19.6 137.47 17.68C135.038 15.76 130.974 14.8 125.278 14.8C114.718 14.8 109.438 19.28 109.438 28.24V34.768H124.126V32.56C124.126 31.536 124.126 30.64 124.126 29.872C124.126 29.04 124.158 28.368 124.222 27.856C124.286 26.832 124.574 26.32 125.086 26.32C125.406 26.32 125.63 26.672 125.758 27.376C125.822 27.76 125.854 28.208 125.854 28.72C125.854 29.168 125.854 29.648 125.854 30.16V34.096C125.854 34.8 125.566 35.44 124.99 36.016C124.414 36.592 123.038 36.88 120.862 36.88H116.734V45.904H120.766C122.494 45.904 123.774 46.064 124.606 46.384C125.438 46.64 125.854 47.28 125.854 48.304V53.392C125.854 53.904 125.854 54.416 125.854 54.928C125.854 55.376 125.822 55.76 125.758 56.08C125.694 56.848 125.47 57.232 125.086 57.232C124.638 57.232 124.35 56.688 124.222 55.6C124.158 55.088 124.126 54.448 124.126 53.68C124.126 52.912 124.126 52.016 124.126 50.992V47.92H109.438V55.312C109.438 64.272 114.718 68.752 125.278 68.752ZM125.278 67.888C115.23 67.888 110.206 63.696 110.206 55.312V48.784H123.358V50.992C123.358 52.208 123.358 53.264 123.358 54.16C123.422 54.992 123.486 55.696 123.55 56.272C123.614 57.488 124.126 58.096 125.086 58.096C125.79 58.096 126.238 57.648 126.43 56.752C126.622 55.792 126.718 54.672 126.718 53.392V48.304C126.718 46.896 126.238 46 125.278 45.616C124.318 45.232 122.814 45.04 120.766 45.04H117.598V37.744H120.862C123.422 37.744 125.022 37.36 125.662 36.592C126.366 35.888 126.718 35.056 126.718 34.096V30.16C126.718 28.88 126.622 27.792 126.43 26.896C126.238 25.936 125.79 25.456 125.086 25.456C124.19 25.456 123.678 26.032 123.55 27.184C123.486 27.824 123.422 28.592 123.358 29.488C123.358 30.32 123.358 31.344 123.358 32.56V33.904H110.206V28.24C110.206 19.856 115.23 15.664 125.278 15.664C130.654 15.664 134.494 16.56 136.798 18.352C139.166 20.144 140.35 23.024 140.35 26.992V31.984C140.35 34.864 139.646 37.2 138.238 38.992C136.83 40.72 134.686 41.648 131.806 41.776C134.43 41.776 136.51 42.64 138.046 44.368C139.582 46.032 140.35 48.336 140.35 51.28V55.312C140.35 60.048 139.134 63.344 136.702 65.2C134.334 66.992 130.526 67.888 125.278 67.888Z" fill="#7AA0D7"/>
<path opacity="0.1" d="M0.384 64V50.464C0.384 46.88 0.672 44.064 1.248 42.016C1.888 39.904 2.944 38.144 4.416 36.736C5.952 35.264 8.032 33.76 10.656 32.224H0.96V22.24C0.96 12.128 6.816 7.07199 18.528 7.07199C22.944 7.07199 26.432 7.616 28.992 8.704C31.552 9.792 33.376 11.616 34.464 14.176C35.552 16.736 36.096 20.224 36.096 24.64C36.096 29.376 35.392 33.12 33.984 35.872C32.576 38.56 30.272 40.896 27.072 42.88L24.672 44.224C23.584 44.864 22.656 45.44 21.888 45.952C21.12 46.4 20.48 46.944 19.968 47.584H36.096V64H0.384ZM2.016 62.272H34.464V49.312H17.472C17.792 47.84 18.496 46.624 19.584 45.664C20.736 44.704 22.208 43.712 24 42.688L26.304 41.44C29.376 39.52 31.488 37.312 32.64 34.816C33.856 32.256 34.464 28.864 34.464 24.64C34.464 20.736 33.984 17.632 33.024 15.328C32.064 13.024 30.4 11.36 28.032 10.336C25.728 9.312 22.56 8.8 18.528 8.8C7.904 8.8 2.592 13.28 2.592 22.24V30.496H17.088C16.512 31.072 15.968 31.488 15.456 31.744L13.632 32.704H13.728L12.768 33.184C10.08 34.592 7.936 35.968 6.336 37.312C4.8 38.656 3.68 40.352 2.976 42.4C2.336 44.384 2.016 47.072 2.016 50.464V62.272ZM2.88 61.408V50.464C2.88 47.264 3.2 44.704 3.84 42.784C4.48 40.8 5.536 39.168 7.008 37.888C8.544 36.544 10.592 35.232 13.152 33.952C14.368 33.248 15.488 32.608 16.512 32.032C17.536 31.392 18.368 30.592 19.008 29.632C19.648 28.672 19.968 27.328 19.968 25.6V24.16C19.968 22.88 19.872 21.792 19.68 20.896C19.488 19.936 19.04 19.456 18.336 19.456C17.44 19.456 16.928 20.032 16.8 21.184C16.736 21.824 16.672 22.592 16.608 23.488C16.608 24.32 16.608 25.344 16.608 26.56V29.632H3.456V22.24C3.456 13.856 8.48 9.664 18.528 9.664C22.368 9.664 25.376 10.144 27.552 11.104C29.728 12.064 31.264 13.632 32.16 15.808C33.12 17.984 33.6 20.928 33.6 24.64C33.6 28.672 33.056 31.904 31.968 34.336C30.88 36.704 28.832 38.816 25.824 40.672C24.032 41.696 22.432 42.624 21.024 43.456C19.68 44.224 18.624 45.12 17.856 46.144C17.088 47.168 16.64 48.544 16.512 50.272H33.6V61.408H2.88ZM17.472 30.208V26.56C17.472 25.536 17.472 24.64 17.472 23.872C17.472 23.04 17.504 22.368 17.568 21.856C17.632 20.832 17.888 20.32 18.336 20.32C18.656 20.32 18.88 20.672 19.008 21.376C19.072 21.76 19.104 22.208 19.104 22.72C19.168 23.168 19.2 23.648 19.2 24.16V25.6C19.2 26.688 19.04 27.616 18.72 28.384C18.4 29.088 17.984 29.696 17.472 30.208ZM54.0345 65.056C48.4025 65.056 44.1785 63.392 41.3625 60.064C38.5465 56.736 37.1385 51.392 37.1385 44.032V23.104C37.1385 17.92 38.6745 13.856 41.7465 10.912C44.8185 7.968 48.9145 6.496 54.0345 6.496C59.1545 6.496 63.2505 7.968 66.3225 10.912C69.3945 13.856 70.9305 17.92 70.9305 23.104V44.032C70.9305 51.392 69.5225 56.736 66.7065 60.064C63.8905 63.392 59.6665 65.056 54.0345 65.056ZM54.0345 63.328C59.0905 63.328 62.8985 61.824 65.4585 58.816C68.0185 55.744 69.2985 50.816 69.2985 44.032V23.104C69.2985 18.496 67.8905 14.88 65.0745 12.256C62.3225 9.568 58.6425 8.224 54.0345 8.224C49.4265 8.224 45.7145 9.568 42.8985 12.256C40.1465 14.88 38.7705 18.496 38.7705 23.104V44.032C38.7705 50.816 40.0505 55.744 42.6105 58.816C45.1705 61.824 48.9785 63.328 54.0345 63.328ZM54.0345 62.464C49.2345 62.464 45.6185 60.992 43.1865 58.048C40.7545 55.104 39.5385 50.432 39.5385 44.032V23.104C39.5385 18.752 40.8505 15.328 43.4745 12.832C46.0985 10.336 49.6185 9.088 54.0345 9.088C58.3865 9.088 61.8745 10.336 64.4985 12.832C67.1225 15.328 68.4345 18.752 68.4345 23.104V44.032C68.4345 50.432 67.2185 55.104 64.7865 58.048C62.3545 60.992 58.7705 62.464 54.0345 62.464ZM54.0345 54.4C54.4185 54.4 54.7385 54.208 54.9945 53.824C55.2505 53.504 55.3785 52.832 55.3785 51.808V20.032C55.3785 18.944 55.2505 18.24 54.9945 17.92C54.6745 17.6 54.3545 17.44 54.0345 17.44C53.6505 17.44 53.2985 17.6 52.9785 17.92C52.7225 18.24 52.5945 18.944 52.5945 20.032V51.808C52.5945 53.536 53.0745 54.4 54.0345 54.4ZM54.0345 53.536C53.6505 53.536 53.4585 52.96 53.4585 51.808V20.032C53.4585 19.456 53.5225 18.976 53.6505 18.592C53.7785 18.4 53.9065 18.304 54.0345 18.304C54.2265 18.304 54.3545 18.4 54.4185 18.592C54.5465 18.976 54.6105 19.456 54.6105 20.032V51.808C54.6105 52.96 54.4185 53.536 54.0345 53.536ZM71.9153 64V50.464C71.9153 46.88 72.2033 44.064 72.7793 42.016C73.4193 39.904 74.4753 38.144 75.9473 36.736C77.4833 35.264 79.5633 33.76 82.1873 32.224H72.4913V22.24C72.4913 12.128 78.3473 7.07199 90.0593 7.07199C94.4753 7.07199 97.9633 7.616 100.523 8.704C103.083 9.792 104.907 11.616 105.995 14.176C107.083 16.736 107.627 20.224 107.627 24.64C107.627 29.376 106.923 33.12 105.515 35.872C104.107 38.56 101.803 40.896 98.6033 42.88L96.2032 44.224C95.1153 44.864 94.1873 45.44 93.4193 45.952C92.6513 46.4 92.0113 46.944 91.4993 47.584H107.627V64H71.9153ZM73.5473 62.272H105.995V49.312H89.0033C89.3233 47.84 90.0273 46.624 91.1153 45.664C92.2673 44.704 93.7393 43.712 95.5312 42.688L97.8353 41.44C100.907 39.52 103.019 37.312 104.171 34.816C105.387 32.256 105.995 28.864 105.995 24.64C105.995 20.736 105.515 17.632 104.555 15.328C103.595 13.024 101.931 11.36 99.5633 10.336C97.2593 9.312 94.0913 8.8 90.0593 8.8C79.4353 8.8 74.1233 13.28 74.1233 22.24V30.496H88.6193C88.0433 31.072 87.4993 31.488 86.9873 31.744L85.1633 32.704H85.2593L84.2993 33.184C81.6113 34.592 79.4673 35.968 77.8672 37.312C76.3313 38.656 75.2113 40.352 74.5073 42.4C73.8673 44.384 73.5473 47.072 73.5473 50.464V62.272ZM74.4113 61.408V50.464C74.4113 47.264 74.7313 44.704 75.3713 42.784C76.0113 40.8 77.0673 39.168 78.5393 37.888C80.0753 36.544 82.1233 35.232 84.6833 33.952C85.8993 33.248 87.0193 32.608 88.0433 32.032C89.0673 31.392 89.8993 30.592 90.5393 29.632C91.1793 28.672 91.4993 27.328 91.4993 25.6V24.16C91.4993 22.88 91.4033 21.792 91.2113 20.896C91.0193 19.936 90.5713 19.456 89.8673 19.456C88.9713 19.456 88.4593 20.032 88.3313 21.184C88.2673 21.824 88.2033 22.592 88.1393 23.488C88.1393 24.32 88.1393 25.344 88.1393 26.56V29.632H74.9873V22.24C74.9873 13.856 80.0113 9.664 90.0593 9.664C93.8993 9.664 96.9073 10.144 99.0833 11.104C101.259 12.064 102.795 13.632 103.691 15.808C104.651 17.984 105.131 20.928 105.131 24.64C105.131 28.672 104.587 31.904 103.499 34.336C102.411 36.704 100.363 38.816 97.3553 40.672C95.5633 41.696 93.9633 42.624 92.5553 43.456C91.2113 44.224 90.1553 45.12 89.3873 46.144C88.6193 47.168 88.1713 48.544 88.0433 50.272H105.131V61.408H74.4113ZM89.0033 30.208V26.56C89.0033 25.536 89.0033 24.64 89.0033 23.872C89.0033 23.04 89.0353 22.368 89.0993 21.856C89.1633 20.832 89.4193 20.32 89.8673 20.32C90.1873 20.32 90.4113 20.672 90.5393 21.376C90.6033 21.76 90.6353 22.208 90.6353 22.72C90.6993 23.168 90.7313 23.648 90.7313 24.16V25.6C90.7313 26.688 90.5713 27.616 90.2513 28.384C89.9313 29.088 89.5153 29.696 89.0033 30.208ZM125.278 64.48C113.566 64.48 107.71 59.424 107.71 49.312V40.192H115.102V30.496H107.71V22.24C107.71 12.064 113.566 6.976 125.278 6.976C131.55 6.976 136.03 8.096 138.718 10.336C141.406 12.512 142.75 16.064 142.75 20.992V25.984C142.75 28.224 142.494 30.144 141.982 31.744C141.47 33.344 140.542 34.688 139.198 35.776C141.566 37.696 142.75 40.864 142.75 45.28V49.312C142.75 55.072 141.342 59.04 138.526 61.216C135.774 63.392 131.358 64.48 125.278 64.48ZM125.278 62.752C130.782 62.752 134.782 61.792 137.278 59.872C139.838 57.952 141.118 54.432 141.118 49.312V45.28C141.118 40.544 139.39 37.376 135.934 35.776C137.79 35.008 139.102 33.792 139.87 32.128C140.702 30.4 141.118 28.352 141.118 25.984V20.992C141.118 16.704 139.902 13.6 137.47 11.68C135.038 9.76 130.974 8.8 125.278 8.8C114.718 8.8 109.438 13.28 109.438 22.24V28.768H124.126V26.56C124.126 25.536 124.126 24.64 124.126 23.872C124.126 23.04 124.158 22.368 124.222 21.856C124.286 20.832 124.574 20.32 125.086 20.32C125.406 20.32 125.63 20.672 125.758 21.376C125.822 21.76 125.854 22.208 125.854 22.72C125.854 23.168 125.854 23.648 125.854 24.16V28.096C125.854 28.8 125.566 29.44 124.99 30.016C124.414 30.592 123.038 30.88 120.862 30.88H116.734V39.904H120.766C122.494 39.904 123.774 40.064 124.606 40.384C125.438 40.64 125.854 41.28 125.854 42.304V47.392C125.854 47.904 125.854 48.416 125.854 48.928C125.854 49.376 125.822 49.76 125.758 50.08C125.694 50.848 125.47 51.232 125.086 51.232C124.638 51.232 124.35 50.688 124.222 49.6C124.158 49.088 124.126 48.448 124.126 47.68C124.126 46.912 124.126 46.016 124.126 44.992V41.92H109.438V49.312C109.438 58.272 114.718 62.752 125.278 62.752ZM125.278 61.888C115.23 61.888 110.206 57.696 110.206 49.312V42.784H123.358V44.992C123.358 46.208 123.358 47.264 123.358 48.16C123.422 48.992 123.486 49.696 123.55 50.272C123.614 51.488 124.126 52.096 125.086 52.096C125.79 52.096 126.238 51.648 126.43 50.752C126.622 49.792 126.718 48.672 126.718 47.392V42.304C126.718 40.896 126.238 40 125.278 39.616C124.318 39.232 122.814 39.04 120.766 39.04H117.598V31.744H120.862C123.422 31.744 125.022 31.36 125.662 30.592C126.366 29.888 126.718 29.056 126.718 28.096V24.16C126.718 22.88 126.622 21.792 126.43 20.896C126.238 19.936 125.79 19.456 125.086 19.456C124.19 19.456 123.678 20.032 123.55 21.184C123.486 21.824 123.422 22.592 123.358 23.488C123.358 24.32 123.358 25.344 123.358 26.56V27.904H110.206V22.24C110.206 13.856 115.23 9.664 125.278 9.664C130.654 9.664 134.494 10.56 136.798 12.352C139.166 14.144 140.35 17.024 140.35 20.992V25.984C140.35 28.864 139.646 31.2 138.238 32.992C136.83 34.72 134.686 35.648 131.806 35.776C134.43 35.776 136.51 36.64 138.046 38.368C139.582 40.032 140.35 42.336 140.35 45.28V49.312C140.35 54.048 139.134 57.344 136.702 59.2C134.334 60.992 130.526 61.888 125.278 61.888Z" fill="#7AA0D7"/>
<path opacity="0.1" d="M0.384 59V45.464C0.384 41.88 0.672 39.064 1.248 37.016C1.888 34.904 2.944 33.144 4.416 31.736C5.952 30.264 8.032 28.76 10.656 27.224H0.96V17.24C0.96 7.128 6.816 2.07199 18.528 2.07199C22.944 2.07199 26.432 2.616 28.992 3.704C31.552 4.792 33.376 6.616 34.464 9.17599C35.552 11.736 36.096 15.224 36.096 19.64C36.096 24.376 35.392 28.12 33.984 30.872C32.576 33.56 30.272 35.896 27.072 37.88L24.672 39.224C23.584 39.864 22.656 40.44 21.888 40.952C21.12 41.4 20.48 41.944 19.968 42.584H36.096V59H0.384ZM2.016 57.272H34.464V44.312H17.472C17.792 42.84 18.496 41.624 19.584 40.664C20.736 39.704 22.208 38.712 24 37.688L26.304 36.44C29.376 34.52 31.488 32.312 32.64 29.816C33.856 27.256 34.464 23.864 34.464 19.64C34.464 15.736 33.984 12.632 33.024 10.328C32.064 8.024 30.4 6.36 28.032 5.336C25.728 4.312 22.56 3.8 18.528 3.8C7.904 3.8 2.592 8.28 2.592 17.24V25.496H17.088C16.512 26.072 15.968 26.488 15.456 26.744L13.632 27.704H13.728L12.768 28.184C10.08 29.592 7.936 30.968 6.336 32.312C4.8 33.656 3.68 35.352 2.976 37.4C2.336 39.384 2.016 42.072 2.016 45.464V57.272ZM2.88 56.408V45.464C2.88 42.264 3.2 39.704 3.84 37.784C4.48 35.8 5.536 34.168 7.008 32.888C8.544 31.544 10.592 30.232 13.152 28.952C14.368 28.248 15.488 27.608 16.512 27.032C17.536 26.392 18.368 25.592 19.008 24.632C19.648 23.672 19.968 22.328 19.968 20.6V19.16C19.968 17.88 19.872 16.792 19.68 15.896C19.488 14.936 19.04 14.456 18.336 14.456C17.44 14.456 16.928 15.032 16.8 16.184C16.736 16.824 16.672 17.592 16.608 18.488C16.608 19.32 16.608 20.344 16.608 21.56V24.632H3.456V17.24C3.456 8.856 8.48 4.664 18.528 4.664C22.368 4.664 25.376 5.144 27.552 6.104C29.728 7.064 31.264 8.632 32.16 10.808C33.12 12.984 33.6 15.928 33.6 19.64C33.6 23.672 33.056 26.904 31.968 29.336C30.88 31.704 28.832 33.816 25.824 35.672C24.032 36.696 22.432 37.624 21.024 38.456C19.68 39.224 18.624 40.12 17.856 41.144C17.088 42.168 16.64 43.544 16.512 45.272H33.6V56.408H2.88ZM17.472 25.208V21.56C17.472 20.536 17.472 19.64 17.472 18.872C17.472 18.04 17.504 17.368 17.568 16.856C17.632 15.832 17.888 15.32 18.336 15.32C18.656 15.32 18.88 15.672 19.008 16.376C19.072 16.76 19.104 17.208 19.104 17.72C19.168 18.168 19.2 18.648 19.2 19.16V20.6C19.2 21.688 19.04 22.616 18.72 23.384C18.4 24.088 17.984 24.696 17.472 25.208ZM54.0345 60.056C48.4025 60.056 44.1785 58.392 41.3625 55.064C38.5465 51.736 37.1385 46.392 37.1385 39.032V18.104C37.1385 12.92 38.6745 8.856 41.7465 5.912C44.8185 2.968 48.9145 1.496 54.0345 1.496C59.1545 1.496 63.2505 2.968 66.3225 5.912C69.3945 8.856 70.9305 12.92 70.9305 18.104V39.032C70.9305 46.392 69.5225 51.736 66.7065 55.064C63.8905 58.392 59.6665 60.056 54.0345 60.056ZM54.0345 58.328C59.0905 58.328 62.8985 56.824 65.4585 53.816C68.0185 50.744 69.2985 45.816 69.2985 39.032V18.104C69.2985 13.496 67.8905 9.88 65.0745 7.256C62.3225 4.568 58.6425 3.224 54.0345 3.224C49.4265 3.224 45.7145 4.568 42.8985 7.256C40.1465 9.88 38.7705 13.496 38.7705 18.104V39.032C38.7705 45.816 40.0505 50.744 42.6105 53.816C45.1705 56.824 48.9785 58.328 54.0345 58.328ZM54.0345 57.464C49.2345 57.464 45.6185 55.992 43.1865 53.048C40.7545 50.104 39.5385 45.432 39.5385 39.032V18.104C39.5385 13.752 40.8505 10.328 43.4745 7.832C46.0985 5.336 49.6185 4.088 54.0345 4.088C58.3865 4.088 61.8745 5.336 64.4985 7.832C67.1225 10.328 68.4345 13.752 68.4345 18.104V39.032C68.4345 45.432 67.2185 50.104 64.7865 53.048C62.3545 55.992 58.7705 57.464 54.0345 57.464ZM54.0345 49.4C54.4185 49.4 54.7385 49.208 54.9945 48.824C55.2505 48.504 55.3785 47.832 55.3785 46.808V15.032C55.3785 13.944 55.2505 13.24 54.9945 12.92C54.6745 12.6 54.3545 12.44 54.0345 12.44C53.6505 12.44 53.2985 12.6 52.9785 12.92C52.7225 13.24 52.5945 13.944 52.5945 15.032V46.808C52.5945 48.536 53.0745 49.4 54.0345 49.4ZM54.0345 48.536C53.6505 48.536 53.4585 47.96 53.4585 46.808V15.032C53.4585 14.456 53.5225 13.976 53.6505 13.592C53.7785 13.4 53.9065 13.304 54.0345 13.304C54.2265 13.304 54.3545 13.4 54.4185 13.592C54.5465 13.976 54.6105 14.456 54.6105 15.032V46.808C54.6105 47.96 54.4185 48.536 54.0345 48.536ZM71.9153 59V45.464C71.9153 41.88 72.2033 39.064 72.7793 37.016C73.4193 34.904 74.4753 33.144 75.9473 31.736C77.4833 30.264 79.5633 28.76 82.1873 27.224H72.4913V17.24C72.4913 7.128 78.3473 2.07199 90.0593 2.07199C94.4753 2.07199 97.9633 2.616 100.523 3.704C103.083 4.792 104.907 6.616 105.995 9.17599C107.083 11.736 107.627 15.224 107.627 19.64C107.627 24.376 106.923 28.12 105.515 30.872C104.107 33.56 101.803 35.896 98.6033 37.88L96.2032 39.224C95.1153 39.864 94.1873 40.44 93.4193 40.952C92.6513 41.4 92.0113 41.944 91.4993 42.584H107.627V59H71.9153ZM73.5473 57.272H105.995V44.312H89.0033C89.3233 42.84 90.0273 41.624 91.1153 40.664C92.2673 39.704 93.7393 38.712 95.5312 37.688L97.8353 36.44C100.907 34.52 103.019 32.312 104.171 29.816C105.387 27.256 105.995 23.864 105.995 19.64C105.995 15.736 105.515 12.632 104.555 10.328C103.595 8.024 101.931 6.36 99.5633 5.336C97.2593 4.312 94.0913 3.8 90.0593 3.8C79.4353 3.8 74.1233 8.28 74.1233 17.24V25.496H88.6193C88.0433 26.072 87.4993 26.488 86.9873 26.744L85.1633 27.704H85.2593L84.2993 28.184C81.6113 29.592 79.4673 30.968 77.8672 32.312C76.3313 33.656 75.2113 35.352 74.5073 37.4C73.8673 39.384 73.5473 42.072 73.5473 45.464V57.272ZM74.4113 56.408V45.464C74.4113 42.264 74.7313 39.704 75.3713 37.784C76.0113 35.8 77.0673 34.168 78.5393 32.888C80.0753 31.544 82.1233 30.232 84.6833 28.952C85.8993 28.248 87.0193 27.608 88.0433 27.032C89.0673 26.392 89.8993 25.592 90.5393 24.632C91.1793 23.672 91.4993 22.328 91.4993 20.6V19.16C91.4993 17.88 91.4033 16.792 91.2113 15.896C91.0193 14.936 90.5713 14.456 89.8673 14.456C88.9713 14.456 88.4593 15.032 88.3313 16.184C88.2673 16.824 88.2033 17.592 88.1393 18.488C88.1393 19.32 88.1393 20.344 88.1393 21.56V24.632H74.9873V17.24C74.9873 8.856 80.0113 4.664 90.0593 4.664C93.8993 4.664 96.9073 5.144 99.0833 6.104C101.259 7.064 102.795 8.632 103.691 10.808C104.651 12.984 105.131 15.928 105.131 19.64C105.131 23.672 104.587 26.904 103.499 29.336C102.411 31.704 100.363 33.816 97.3553 35.672C95.5633 36.696 93.9633 37.624 92.5553 38.456C91.2113 39.224 90.1553 40.12 89.3873 41.144C88.6193 42.168 88.1713 43.544 88.0433 45.272H105.131V56.408H74.4113ZM89.0033 25.208V21.56C89.0033 20.536 89.0033 19.64 89.0033 18.872C89.0033 18.04 89.0353 17.368 89.0993 16.856C89.1633 15.832 89.4193 15.32 89.8673 15.32C90.1873 15.32 90.4113 15.672 90.5393 16.376C90.6033 16.76 90.6353 17.208 90.6353 17.72C90.6993 18.168 90.7313 18.648 90.7313 19.16V20.6C90.7313 21.688 90.5713 22.616 90.2513 23.384C89.9313 24.088 89.5153 24.696 89.0033 25.208ZM125.278 59.48C113.566 59.48 107.71 54.424 107.71 44.312V35.192H115.102V25.496H107.71V17.24C107.71 7.064 113.566 1.976 125.278 1.976C131.55 1.976 136.03 3.096 138.718 5.336C141.406 7.512 142.75 11.064 142.75 15.992V20.984C142.75 23.224 142.494 25.144 141.982 26.744C141.47 28.344 140.542 29.688 139.198 30.776C141.566 32.696 142.75 35.864 142.75 40.28V44.312C142.75 50.072 141.342 54.04 138.526 56.216C135.774 58.392 131.358 59.48 125.278 59.48ZM125.278 57.752C130.782 57.752 134.782 56.792 137.278 54.872C139.838 52.952 141.118 49.432 141.118 44.312V40.28C141.118 35.544 139.39 32.376 135.934 30.776C137.79 30.008 139.102 28.792 139.87 27.128C140.702 25.4 141.118 23.352 141.118 20.984V15.992C141.118 11.704 139.902 8.6 137.47 6.68C135.038 4.76 130.974 3.8 125.278 3.8C114.718 3.8 109.438 8.28 109.438 17.24V23.768H124.126V21.56C124.126 20.536 124.126 19.64 124.126 18.872C124.126 18.04 124.158 17.368 124.222 16.856C124.286 15.832 124.574 15.32 125.086 15.32C125.406 15.32 125.63 15.672 125.758 16.376C125.822 16.76 125.854 17.208 125.854 17.72C125.854 18.168 125.854 18.648 125.854 19.16V23.096C125.854 23.8 125.566 24.44 124.99 25.016C124.414 25.592 123.038 25.88 120.862 25.88H116.734V34.904H120.766C122.494 34.904 123.774 35.064 124.606 35.384C125.438 35.64 125.854 36.28 125.854 37.304V42.392C125.854 42.904 125.854 43.416 125.854 43.928C125.854 44.376 125.822 44.76 125.758 45.08C125.694 45.848 125.47 46.232 125.086 46.232C124.638 46.232 124.35 45.688 124.222 44.6C124.158 44.088 124.126 43.448 124.126 42.68C124.126 41.912 124.126 41.016 124.126 39.992V36.92H109.438V44.312C109.438 53.272 114.718 57.752 125.278 57.752ZM125.278 56.888C115.23 56.888 110.206 52.696 110.206 44.312V37.784H123.358V39.992C123.358 41.208 123.358 42.264 123.358 43.16C123.422 43.992 123.486 44.696 123.55 45.272C123.614 46.488 124.126 47.096 125.086 47.096C125.79 47.096 126.238 46.648 126.43 45.752C126.622 44.792 126.718 43.672 126.718 42.392V37.304C126.718 35.896 126.238 35 125.278 34.616C124.318 34.232 122.814 34.04 120.766 34.04H117.598V26.744H120.862C123.422 26.744 125.022 26.36 125.662 25.592C126.366 24.888 126.718 24.056 126.718 23.096V19.16C126.718 17.88 126.622 16.792 126.43 15.896C126.238 14.936 125.79 14.456 125.086 14.456C124.19 14.456 123.678 15.032 123.55 16.184C123.486 16.824 123.422 17.592 123.358 18.488C123.358 19.32 123.358 20.344 123.358 21.56V22.904H110.206V17.24C110.206 8.856 115.23 4.664 125.278 4.664C130.654 4.664 134.494 5.56 136.798 7.352C139.166 9.144 140.35 12.024 140.35 15.992V20.984C140.35 23.864 139.646 26.2 138.238 27.992C136.83 29.72 134.686 30.648 131.806 30.776C134.43 30.776 136.51 31.64 138.046 33.368C139.582 35.032 140.35 37.336 140.35 40.28V44.312C140.35 49.048 139.134 52.344 136.702 54.2C134.334 55.992 130.526 56.888 125.278 56.888Z" fill="#7AA0D7"/>
<path opacity="0.6" d="M0.384 59V45.464C0.384 41.88 0.672 39.064 1.248 37.016C1.888 34.904 2.944 33.144 4.416 31.736C5.952 30.264 8.032 28.76 10.656 27.224H0.96V17.24C0.96 7.128 6.816 2.07199 18.528 2.07199C22.944 2.07199 26.432 2.616 28.992 3.704C31.552 4.792 33.376 6.616 34.464 9.17599C35.552 11.736 36.096 15.224 36.096 19.64C36.096 24.376 35.392 28.12 33.984 30.872C32.576 33.56 30.272 35.896 27.072 37.88L24.672 39.224C23.584 39.864 22.656 40.44 21.888 40.952C21.12 41.4 20.48 41.944 19.968 42.584H36.096V59H0.384ZM2.016 57.272H34.464V44.312H17.472C17.792 42.84 18.496 41.624 19.584 40.664C20.736 39.704 22.208 38.712 24 37.688L26.304 36.44C29.376 34.52 31.488 32.312 32.64 29.816C33.856 27.256 34.464 23.864 34.464 19.64C34.464 15.736 33.984 12.632 33.024 10.328C32.064 8.024 30.4 6.36 28.032 5.336C25.728 4.312 22.56 3.8 18.528 3.8C7.904 3.8 2.592 8.28 2.592 17.24V25.496H17.088C16.512 26.072 15.968 26.488 15.456 26.744L13.632 27.704H13.728L12.768 28.184C10.08 29.592 7.936 30.968 6.336 32.312C4.8 33.656 3.68 35.352 2.976 37.4C2.336 39.384 2.016 42.072 2.016 45.464V57.272ZM2.88 56.408V45.464C2.88 42.264 3.2 39.704 3.84 37.784C4.48 35.8 5.536 34.168 7.008 32.888C8.544 31.544 10.592 30.232 13.152 28.952C14.368 28.248 15.488 27.608 16.512 27.032C17.536 26.392 18.368 25.592 19.008 24.632C19.648 23.672 19.968 22.328 19.968 20.6V19.16C19.968 17.88 19.872 16.792 19.68 15.896C19.488 14.936 19.04 14.456 18.336 14.456C17.44 14.456 16.928 15.032 16.8 16.184C16.736 16.824 16.672 17.592 16.608 18.488C16.608 19.32 16.608 20.344 16.608 21.56V24.632H3.456V17.24C3.456 8.856 8.48 4.664 18.528 4.664C22.368 4.664 25.376 5.144 27.552 6.104C29.728 7.064 31.264 8.632 32.16 10.808C33.12 12.984 33.6 15.928 33.6 19.64C33.6 23.672 33.056 26.904 31.968 29.336C30.88 31.704 28.832 33.816 25.824 35.672C24.032 36.696 22.432 37.624 21.024 38.456C19.68 39.224 18.624 40.12 17.856 41.144C17.088 42.168 16.64 43.544 16.512 45.272H33.6V56.408H2.88ZM17.472 25.208V21.56C17.472 20.536 17.472 19.64 17.472 18.872C17.472 18.04 17.504 17.368 17.568 16.856C17.632 15.832 17.888 15.32 18.336 15.32C18.656 15.32 18.88 15.672 19.008 16.376C19.072 16.76 19.104 17.208 19.104 17.72C19.168 18.168 19.2 18.648 19.2 19.16V20.6C19.2 21.688 19.04 22.616 18.72 23.384C18.4 24.088 17.984 24.696 17.472 25.208ZM54.0345 60.056C48.4025 60.056 44.1785 58.392 41.3625 55.064C38.5465 51.736 37.1385 46.392 37.1385 39.032V18.104C37.1385 12.92 38.6745 8.856 41.7465 5.912C44.8185 2.968 48.9145 1.496 54.0345 1.496C59.1545 1.496 63.2505 2.968 66.3225 5.912C69.3945 8.856 70.9305 12.92 70.9305 18.104V39.032C70.9305 46.392 69.5225 51.736 66.7065 55.064C63.8905 58.392 59.6665 60.056 54.0345 60.056ZM54.0345 58.328C59.0905 58.328 62.8985 56.824 65.4585 53.816C68.0185 50.744 69.2985 45.816 69.2985 39.032V18.104C69.2985 13.496 67.8905 9.88 65.0745 7.256C62.3225 4.568 58.6425 3.224 54.0345 3.224C49.4265 3.224 45.7145 4.568 42.8985 7.256C40.1465 9.88 38.7705 13.496 38.7705 18.104V39.032C38.7705 45.816 40.0505 50.744 42.6105 53.816C45.1705 56.824 48.9785 58.328 54.0345 58.328ZM54.0345 57.464C49.2345 57.464 45.6185 55.992 43.1865 53.048C40.7545 50.104 39.5385 45.432 39.5385 39.032V18.104C39.5385 13.752 40.8505 10.328 43.4745 7.832C46.0985 5.336 49.6185 4.088 54.0345 4.088C58.3865 4.088 61.8745 5.336 64.4985 7.832C67.1225 10.328 68.4345 13.752 68.4345 18.104V39.032C68.4345 45.432 67.2185 50.104 64.7865 53.048C62.3545 55.992 58.7705 57.464 54.0345 57.464ZM54.0345 49.4C54.4185 49.4 54.7385 49.208 54.9945 48.824C55.2505 48.504 55.3785 47.832 55.3785 46.808V15.032C55.3785 13.944 55.2505 13.24 54.9945 12.92C54.6745 12.6 54.3545 12.44 54.0345 12.44C53.6505 12.44 53.2985 12.6 52.9785 12.92C52.7225 13.24 52.5945 13.944 52.5945 15.032V46.808C52.5945 48.536 53.0745 49.4 54.0345 49.4ZM54.0345 48.536C53.6505 48.536 53.4585 47.96 53.4585 46.808V15.032C53.4585 14.456 53.5225 13.976 53.6505 13.592C53.7785 13.4 53.9065 13.304 54.0345 13.304C54.2265 13.304 54.3545 13.4 54.4185 13.592C54.5465 13.976 54.6105 14.456 54.6105 15.032V46.808C54.6105 47.96 54.4185 48.536 54.0345 48.536ZM71.9153 59V45.464C71.9153 41.88 72.2033 39.064 72.7793 37.016C73.4193 34.904 74.4753 33.144 75.9473 31.736C77.4833 30.264 79.5633 28.76 82.1873 27.224H72.4913V17.24C72.4913 7.128 78.3473 2.07199 90.0593 2.07199C94.4753 2.07199 97.9633 2.616 100.523 3.704C103.083 4.792 104.907 6.616 105.995 9.17599C107.083 11.736 107.627 15.224 107.627 19.64C107.627 24.376 106.923 28.12 105.515 30.872C104.107 33.56 101.803 35.896 98.6033 37.88L96.2032 39.224C95.1153 39.864 94.1873 40.44 93.4193 40.952C92.6513 41.4 92.0113 41.944 91.4993 42.584H107.627V59H71.9153ZM73.5473 57.272H105.995V44.312H89.0033C89.3233 42.84 90.0273 41.624 91.1153 40.664C92.2673 39.704 93.7393 38.712 95.5312 37.688L97.8353 36.44C100.907 34.52 103.019 32.312 104.171 29.816C105.387 27.256 105.995 23.864 105.995 19.64C105.995 15.736 105.515 12.632 104.555 10.328C103.595 8.024 101.931 6.36 99.5633 5.336C97.2593 4.312 94.0913 3.8 90.0593 3.8C79.4353 3.8 74.1233 8.28 74.1233 17.24V25.496H88.6193C88.0433 26.072 87.4993 26.488 86.9873 26.744L85.1633 27.704H85.2593L84.2993 28.184C81.6113 29.592 79.4673 30.968 77.8672 32.312C76.3313 33.656 75.2113 35.352 74.5073 37.4C73.8673 39.384 73.5473 42.072 73.5473 45.464V57.272ZM74.4113 56.408V45.464C74.4113 42.264 74.7313 39.704 75.3713 37.784C76.0113 35.8 77.0673 34.168 78.5393 32.888C80.0753 31.544 82.1233 30.232 84.6833 28.952C85.8993 28.248 87.0193 27.608 88.0433 27.032C89.0673 26.392 89.8993 25.592 90.5393 24.632C91.1793 23.672 91.4993 22.328 91.4993 20.6V19.16C91.4993 17.88 91.4033 16.792 91.2113 15.896C91.0193 14.936 90.5713 14.456 89.8673 14.456C88.9713 14.456 88.4593 15.032 88.3313 16.184C88.2673 16.824 88.2033 17.592 88.1393 18.488C88.1393 19.32 88.1393 20.344 88.1393 21.56V24.632H74.9873V17.24C74.9873 8.856 80.0113 4.664 90.0593 4.664C93.8993 4.664 96.9073 5.144 99.0833 6.104C101.259 7.064 102.795 8.632 103.691 10.808C104.651 12.984 105.131 15.928 105.131 19.64C105.131 23.672 104.587 26.904 103.499 29.336C102.411 31.704 100.363 33.816 97.3553 35.672C95.5633 36.696 93.9633 37.624 92.5553 38.456C91.2113 39.224 90.1553 40.12 89.3873 41.144C88.6193 42.168 88.1713 43.544 88.0433 45.272H105.131V56.408H74.4113ZM89.0033 25.208V21.56C89.0033 20.536 89.0033 19.64 89.0033 18.872C89.0033 18.04 89.0353 17.368 89.0993 16.856C89.1633 15.832 89.4193 15.32 89.8673 15.32C90.1873 15.32 90.4113 15.672 90.5393 16.376C90.6033 16.76 90.6353 17.208 90.6353 17.72C90.6993 18.168 90.7313 18.648 90.7313 19.16V20.6C90.7313 21.688 90.5713 22.616 90.2513 23.384C89.9313 24.088 89.5153 24.696 89.0033 25.208ZM125.278 59.48C113.566 59.48 107.71 54.424 107.71 44.312V35.192H115.102V25.496H107.71V17.24C107.71 7.064 113.566 1.976 125.278 1.976C131.55 1.976 136.03 3.096 138.718 5.336C141.406 7.512 142.75 11.064 142.75 15.992V20.984C142.75 23.224 142.494 25.144 141.982 26.744C141.47 28.344 140.542 29.688 139.198 30.776C141.566 32.696 142.75 35.864 142.75 40.28V44.312C142.75 50.072 141.342 54.04 138.526 56.216C135.774 58.392 131.358 59.48 125.278 59.48ZM125.278 57.752C130.782 57.752 134.782 56.792 137.278 54.872C139.838 52.952 141.118 49.432 141.118 44.312V40.28C141.118 35.544 139.39 32.376 135.934 30.776C137.79 30.008 139.102 28.792 139.87 27.128C140.702 25.4 141.118 23.352 141.118 20.984V15.992C141.118 11.704 139.902 8.6 137.47 6.68C135.038 4.76 130.974 3.8 125.278 3.8C114.718 3.8 109.438 8.28 109.438 17.24V23.768H124.126V21.56C124.126 20.536 124.126 19.64 124.126 18.872C124.126 18.04 124.158 17.368 124.222 16.856C124.286 15.832 124.574 15.32 125.086 15.32C125.406 15.32 125.63 15.672 125.758 16.376C125.822 16.76 125.854 17.208 125.854 17.72C125.854 18.168 125.854 18.648 125.854 19.16V23.096C125.854 23.8 125.566 24.44 124.99 25.016C124.414 25.592 123.038 25.88 120.862 25.88H116.734V34.904H120.766C122.494 34.904 123.774 35.064 124.606 35.384C125.438 35.64 125.854 36.28 125.854 37.304V42.392C125.854 42.904 125.854 43.416 125.854 43.928C125.854 44.376 125.822 44.76 125.758 45.08C125.694 45.848 125.47 46.232 125.086 46.232C124.638 46.232 124.35 45.688 124.222 44.6C124.158 44.088 124.126 43.448 124.126 42.68C124.126 41.912 124.126 41.016 124.126 39.992V36.92H109.438V44.312C109.438 53.272 114.718 57.752 125.278 57.752ZM125.278 56.888C115.23 56.888 110.206 52.696 110.206 44.312V37.784H123.358V39.992C123.358 41.208 123.358 42.264 123.358 43.16C123.422 43.992 123.486 44.696 123.55 45.272C123.614 46.488 124.126 47.096 125.086 47.096C125.79 47.096 126.238 46.648 126.43 45.752C126.622 44.792 126.718 43.672 126.718 42.392V37.304C126.718 35.896 126.238 35 125.278 34.616C124.318 34.232 122.814 34.04 120.766 34.04H117.598V26.744H120.862C123.422 26.744 125.022 26.36 125.662 25.592C126.366 24.888 126.718 24.056 126.718 23.096V19.16C126.718 17.88 126.622 16.792 126.43 15.896C126.238 14.936 125.79 14.456 125.086 14.456C124.19 14.456 123.678 15.032 123.55 16.184C123.486 16.824 123.422 17.592 123.358 18.488C123.358 19.32 123.358 20.344 123.358 21.56V22.904H110.206V17.24C110.206 8.856 115.23 4.664 125.278 4.664C130.654 4.664 134.494 5.56 136.798 7.352C139.166 9.144 140.35 12.024 140.35 15.992V20.984C140.35 23.864 139.646 26.2 138.238 27.992C136.83 29.72 134.686 30.648 131.806 30.776C134.43 30.776 136.51 31.64 138.046 33.368C139.582 35.032 140.35 37.336 140.35 40.28V44.312C140.35 49.048 139.134 52.344 136.702 54.2C134.334 55.992 130.526 56.888 125.278 56.888Z" fill="#7AA0D7"/>
</svg>
