<?xml version="1.0" encoding="UTF-8"?>
<svg width="573.93pt" height="70pt" style="isolation:isolate" viewBox="369.07 144.64 573.93 70" xmlns="http://www.w3.org/2000/svg">
<path d="m712.81 156.53v13.501h3.417q5.025 0 7.417-1.675 2.393-1.674 2.393-5.263 0-3.555-2.444-5.059t-7.571-1.504h-3.212zm5.639 22.115h-5.639v19.174h-10.596v-49.97h14.56q10.186 0 15.074 3.708 4.887 3.709 4.887 11.262 0 4.41-2.426 7.845-2.427 3.435-6.871 5.383 11.28 16.85 14.698 21.772h-11.758l-11.929-19.174zm60.703 19.174h-7.28l-2.017-5.195h-0.273q-2.632 3.315-5.418 4.597-2.785 1.282-7.263 1.282-5.503 0-8.664-3.145-3.162-3.144-3.162-8.955 0-6.084 4.255-8.972 4.256-2.888 12.835-3.196l6.631-0.205v-1.675q0-5.81-5.947-5.81-4.581 0-10.767 2.768l-3.452-7.041q6.596-3.452 14.629-3.452 7.69 0 11.792 3.35 4.101 3.35 4.101 10.185v25.464zm-10.356-14.56v-3.145l-4.033 0.137q-4.546 0.137-6.768 1.641t-2.222 4.58q0 4.409 5.059 4.409 3.623 0 5.793-2.085 2.171-2.085 2.171-5.537zm56.362-10.357v24.917h-10.425v-22.319q0-4.136-1.469-6.204-1.47-2.067-4.683-2.067-4.375 0-6.323 2.922t-1.948 9.69v17.978h-10.425v-38.213h7.964l1.401 4.888h0.581q1.743-2.768 4.802-4.187 3.059-1.418 6.956-1.418 6.665 0 10.117 3.606t3.452 10.407zm26.831 17.295q2.735 0 6.563-1.196v7.759q-3.897 1.743-9.571 1.743-6.255 0-9.109-3.162-2.854-3.161-2.854-9.485v-18.422h-4.99v-4.41l5.742-3.486 3.008-8.066h6.665v8.134h10.699v7.828h-10.699v18.422q0 2.222 1.248 3.282 1.247 1.059 3.298 1.059zm40.947-3.725q0 5.879-4.084 8.955t-12.219 3.076q-4.17 0-7.11-0.564-2.939-0.564-5.503-1.658v-8.613q2.906 1.367 6.546 2.29t6.409 0.923q5.673 0 5.673-3.281 0-1.231-0.752-2t-2.597-1.743q-1.846-0.974-4.922-2.273-4.409-1.846-6.477-3.418t-3.008-3.606-0.94-5.007q0-5.093 3.948-7.879 3.948-2.785 11.194-2.785 6.904 0 13.432 3.007l-3.144 7.52q-2.871-1.23-5.366-2.017-2.496-0.786-5.093-0.786-4.614 0-4.614 2.495 0 1.402 1.486 2.427 1.487 1.026 6.512 3.042 4.477 1.812 6.562 3.384t3.076 3.623 0.991 4.888z" fill="#ff6363"/>
<path d="m392.52 155.95q-5.982 0-9.263 4.495-3.281 4.494-3.281 12.527 0 16.714 12.544 16.714 5.263 0 12.749-2.632v8.886q-6.153 2.564-13.741 2.564-10.903 0-16.679-6.614-5.777-6.614-5.777-18.987 0-7.793 2.837-13.654 2.837-5.862 8.152-8.99 5.315-3.127 12.459-3.127 7.28 0 14.629 3.52l-3.418 8.614q-2.803-1.333-5.64-2.325-2.837-0.991-5.571-0.991zm30.864 22.696q0 5.673 1.863 8.579 1.862 2.905 6.067 2.905 4.17 0 5.998-2.888 1.829-2.888 1.829-8.596 0-5.674-1.846-8.511t-6.05-2.837q-4.17 0-6.015 2.82-1.846 2.82-1.846 8.528zm26.421 0q0 9.331-4.922 14.594-4.922 5.264-13.706 5.264-5.503 0-9.707-2.41-4.204-2.409-6.46-6.921t-2.256-10.527q0-9.366 4.888-14.561 4.887-5.195 13.74-5.195 5.503 0 9.707 2.392 4.204 2.393 6.46 6.87 2.256 4.478 2.256 10.494zm20.713 19.858q-6.734 0-10.579-5.23-3.845-5.229-3.845-14.492 0-9.399 3.913-14.646 3.914-5.246 10.784-5.246 7.212 0 11.006 5.605h0.342q-0.786-4.272-0.786-7.622v-12.236h10.459v53.183h-7.998l-2.017-4.956h-0.444q-3.555 5.64-10.835 5.64zm3.657-8.306q3.999 0 5.862-2.324t2.033-7.895v-1.128q0-6.153-1.897-8.819t-6.169-2.666q-3.486 0-5.417 2.957-1.932 2.956-1.932 8.596t1.949 8.459q1.948 2.82 5.571 2.82zm44.365-23.891q-3.315 0-5.195 2.102t-2.153 5.964h14.628q-0.068-3.862-2.016-5.964t-5.264-2.102zm1.47 32.197q-9.229 0-14.424-5.093t-5.195-14.424q0-9.604 4.802-14.851 4.802-5.246 13.279-5.246 8.1 0 12.612 4.614t4.512 12.749v5.059h-24.644q0.171 4.443 2.632 6.938t6.904 2.495q3.453 0 6.529-0.718 3.076-0.717 6.426-2.29v8.067q-2.735 1.367-5.845 2.033-3.111 0.667-7.588 0.667zm43.989-38.897h13.33v5.298l-5.981 1.538q1.64 2.564 1.64 5.743 0 6.152-4.289 9.587-4.29 3.435-11.912 3.435l-1.88-0.103-1.538-0.17q-1.606 1.23-1.606 2.734 0 2.256 5.742 2.256h6.494q6.289 0 9.588 2.7 3.298 2.7 3.298 7.93 0 6.699-5.588 10.39-5.589 3.692-16.048 3.692-7.998 0-12.219-2.786t-4.221-7.81q0-3.452 2.153-5.776 2.153-2.325 6.323-3.316-1.606-0.683-2.802-2.239-1.197-1.555-1.197-3.298 0-2.187 1.265-3.64t3.657-2.854q-3.008-1.299-4.768-4.17t-1.76-6.768q0-6.254 4.067-9.672 4.068-3.418 11.621-3.418 1.607 0 3.811 0.29 2.205 0.291 2.82 0.427zm-16.167 43.614q0 2.153 2.068 3.384 2.068 1.23 5.793 1.23 5.606 0 8.785-1.538 3.178-1.538 3.178-4.204 0-2.154-1.88-2.974-1.879-0.82-5.81-0.82h-5.4q-2.872 0-4.803 1.35t-1.931 3.572zm3.794-31.104q0 3.111 1.419 4.922 1.418 1.812 4.323 1.812 2.94 0 4.307-1.812 1.367-1.811 1.367-4.922 0-6.904-5.674-6.904-5.742 0-5.742 6.904zm63.54 25.703h-7.28l-2.017-5.195h-0.273q-2.632 3.315-5.418 4.597-2.785 1.282-7.263 1.282-5.503 0-8.664-3.145-3.162-3.144-3.162-8.955 0-6.084 4.255-8.972 4.256-2.888 12.835-3.196l6.631-0.205v-1.675q0-5.81-5.948-5.81-4.58 0-10.766 2.768l-3.452-7.041q6.596-3.452 14.629-3.452 7.69 0 11.792 3.35 4.101 3.35 4.101 10.185v25.464zm-10.356-14.56v-3.145l-4.034 0.137q-4.545 0.137-6.767 1.641t-2.222 4.58q0 4.409 5.059 4.409 3.623 0 5.793-2.085 2.171-2.085 2.171-5.537zm47.68 6.596v7.964h-30.18v-6.152l17.705-24.097h-16.646v-7.964h28.506v6.768l-17.226 23.481h17.841zm23.379-23.549q-3.315 0-5.195 2.102t-2.153 5.964h14.629q-0.069-3.862-2.017-5.964t-5.264-2.102zm1.47 32.197q-9.229 0-14.424-5.093t-5.195-14.424q0-9.604 4.802-14.851 4.802-5.246 13.279-5.246 8.1 0 12.612 4.614t4.512 12.749v5.059h-24.644q0.171 4.443 2.632 6.938t6.905 2.495q3.452 0 6.528-0.718 3.076-0.717 6.426-2.29v8.067q-2.735 1.367-5.845 2.033-3.11 0.667-7.588 0.667z" fill="#2f2f2f"/>
<rect x="905" y="190.86" width="38" height="7" fill="#ff6363"/>
</svg>
