<svg width="62" height="4" viewBox="0 0 62 4" fill="none" xmlns="http://www.w3.org/2000/svg">
<path d="M0.5 2.5L1.70082 1.69946C3.67787 0.381419 6.2712 0.453399 8.1721 1.87907V1.87907C8.71941 2.28955 9.33725 2.59636 9.99506 2.7843L10.4285 2.90814C11.7856 3.29588 13.2208 3.3198 14.5901 2.97748L16.5 2.5L16.9472 2.35093C19.5693 1.47689 22.412 1.52951 25 2.5V2.5L25.4566 2.63699C28.4132 3.52397 31.5716 3.47613 34.5 2.5V2.5L38.0777 1.78446C40.6669 1.26662 43.3331 1.26662 45.9223 1.78446L49.5 2.5L53.2127 2.99503C55.715 3.32866 58.2577 3.18557 60.7067 2.57332L61 2.5" stroke="#FF6263" stroke-width="2" stroke-linecap="round" stroke-linejoin="round"/>
</svg>
